<?xml version="1.0" encoding="UTF-8" standalone="no"?>
<!-- Created with Inkscape (http://www.inkscape.org/) -->

<svg
   xmlns:dc="http://purl.org/dc/elements/1.1/"
   xmlns:cc="http://creativecommons.org/ns#"
   xmlns:rdf="http://www.w3.org/1999/02/22-rdf-syntax-ns#"
   xmlns:svg="http://www.w3.org/2000/svg"
   xmlns="http://www.w3.org/2000/svg"
   xmlns:sodipodi="http://sodipodi.sourceforge.net/DTD/sodipodi-0.dtd"
   xmlns:inkscape="http://www.inkscape.org/namespaces/inkscape"
   width="435.61948"
   height="207.13756"
   id="svg2"
   version="1.1"
   inkscape:version="0.48.4 r9939"
   sodipodi:docname="beehive_logo.svg">
  <defs
     id="defs4" />
  <sodipodi:namedview
     id="base"
     pagecolor="#ffffff"
     bordercolor="#666666"
     borderopacity="1.0"
     inkscape:pageopacity="0.0"
     inkscape:pageshadow="2"
     inkscape:zoom="1.979899"
     inkscape:cx="221.1759"
     inkscape:cy="132.59922"
     inkscape:document-units="px"
     inkscape:current-layer="layer1"
     showgrid="false"
     inkscape:window-width="1600"
     inkscape:window-height="876"
     inkscape:window-x="0"
     inkscape:window-y="24"
     inkscape:window-maximized="1"
     fit-margin-top="15"
     fit-margin-left="13"
     fit-margin-bottom="15"
     fit-margin-right="13" />
  <metadata
     id="metadata7">
    <rdf:RDF>
      <cc:Work
         rdf:about="">
        <dc:format>image/svg+xml</dc:format>
        <dc:type
           rdf:resource="http://purl.org/dc/dcmitype/StillImage" />
        <dc:title></dc:title>
      </cc:Work>
    </rdf:RDF>
  </metadata>
  <g
     inkscape:label="Layer 1"
     inkscape:groupmode="layer"
     id="layer1"
     transform="translate(-16.844314,-178.81586)">
    <flowRoot
       xml:space="preserve"
       id="flowRoot3050"
       style="font-size:40px;font-style:normal;font-variant:normal;font-weight:normal;font-stretch:normal;line-height:125%;letter-spacing:0px;word-spacing:0px;fill:#000000;fill-opacity:1;stroke:none;font-family:Saab;-inkscape-font-specification:Saab"><flowRegion
         id="flowRegion3052"><rect
           id="rect3054"
           width="0"
           height="43.436558"
           x="257.5889"
           y="386.67166" /></flowRegion><flowPara
         id="flowPara3056"></flowPara></flowRoot>    <text
       xml:space="preserve"
       style="font-size:62.58098221px;font-style:normal;font-variant:normal;font-weight:500;font-stretch:normal;line-height:885.00003815%;letter-spacing:-0.57999998px;word-spacing:0px;fill:#000000;fill-opacity:1;stroke:none;font-family:gargi;-inkscape-font-specification:gargi Medium"
       x="170.89993"
       y="316.32025"
       id="text3058-6"
       sodipodi:linespacing="885.00004%"
       transform="scale(0.9416379,1.0619793)"><tspan
         sodipodi:role="line"
         id="tspan3060-8"
         x="170.89993"
         y="316.32025"
         style="font-size:73.01114655px;font-style:normal;font-variant:normal;font-weight:500;font-stretch:normal;text-align:start;line-height:885.00003815%;letter-spacing:-0.57999998px;writing-mode:lr-tb;text-anchor:start;font-family:KacstArt;-inkscape-font-specification:KacstArt Medium">Bee<tspan
   style="font-size:73.01114655px;font-style:normal;font-variant:normal;font-weight:500;font-stretch:normal;text-align:start;line-height:885.00003815%;letter-spacing:-0.57999998px;writing-mode:lr-tb;text-anchor:start;fill:#ff8f26;fill-opacity:1;font-family:KacstArt;-inkscape-font-specification:KacstArt Medium"
   id="tspan3062-6">H</tspan>ive</tspan></text>
    <path
       sodipodi:type="star"
       style="fill:#ffb726;fill-opacity:0;stroke:#ffb726;stroke-width:6;stroke-linecap:round;stroke-miterlimit:4;stroke-opacity:1;stroke-dasharray:none"
       id="path4008"
       sodipodi:sides="6"
       sodipodi:cx="140.71429"
       sodipodi:cy="141.6479"
       sodipodi:r1="32.95792"
       sodipodi:r2="28.542397"
       sodipodi:arg1="1.048962"
       sodipodi:arg2="1.5725608"
       inkscape:flatsided="true"
       inkscape:rounded="0.01"
       inkscape:randomized="0"
       d="m 157.14287,170.21933 c -0.28572,0.16429 -32.67274,0.10714 -32.95787,-0.0582 -0.28513,-0.16529 -16.42916,-28.24185 -16.42857,-28.57143 5.8e-4,-0.32958 16.24358,-28.34899 16.52929,-28.51327 0.28572,-0.16429 32.67274,-0.10714 32.95787,0.0581 0.28513,0.16529 16.42915,28.24185 16.42857,28.57143 -5.8e-4,0.32957 -16.24358,28.34899 -16.52929,28.51327 z"
       transform="matrix(0.00612819,0.99998123,-0.99998123,0.00612819,230.06865,93.639635)" />
    <path
       transform="matrix(0.00612819,0.99998123,-0.99998123,0.00612819,298.38626,88.20019)"
       d="m 157.14287,170.21933 c -0.28572,0.16429 -32.67274,0.10714 -32.95787,-0.0582 -0.28513,-0.16529 -16.42916,-28.24185 -16.42857,-28.57143 5.8e-4,-0.32958 16.24358,-28.34899 16.52929,-28.51327 0.28572,-0.16429 32.67274,-0.10714 32.95787,0.0581 0.28513,0.16529 16.42915,28.24185 16.42857,28.57143 -5.8e-4,0.32957 -16.24358,28.34899 -16.52929,28.51327 z"
       inkscape:randomized="0"
       inkscape:rounded="0.01"
       inkscape:flatsided="true"
       sodipodi:arg2="1.5725608"
       sodipodi:arg1="1.048962"
       sodipodi:r2="28.542397"
       sodipodi:r1="32.95792"
       sodipodi:cy="141.6479"
       sodipodi:cx="140.71429"
       sodipodi:sides="6"
       id="path4010"
       style="fill:#ffb726;fill-opacity:0;stroke:#ffb726;stroke-width:6;stroke-linecap:round;stroke-miterlimit:4;stroke-opacity:1;stroke-dasharray:none"
       sodipodi:type="star" />
    <path
       sodipodi:type="star"
       style="fill:#ffb726;fill-opacity:0;stroke:#ffb726;stroke-width:6;stroke-linecap:round;stroke-miterlimit:4;stroke-opacity:1;stroke-dasharray:none"
       id="path4014"
       sodipodi:sides="6"
       sodipodi:cx="140.71429"
       sodipodi:cy="141.6479"
       sodipodi:r1="32.95792"
       sodipodi:r2="28.542397"
       sodipodi:arg1="1.048962"
       sodipodi:arg2="1.5725608"
       inkscape:flatsided="true"
       inkscape:rounded="0.01"
       inkscape:randomized="0"
       d="m 157.14287,170.21933 c -0.28572,0.16429 -32.67274,0.10714 -32.95787,-0.0582 -0.28513,-0.16529 -16.42916,-28.24185 -16.42857,-28.57143 5.8e-4,-0.32958 16.24358,-28.34899 16.52929,-28.51327 0.28572,-0.16429 32.67274,-0.10714 32.95787,0.0581 0.28513,0.16529 16.42915,28.24185 16.42857,28.57143 -5.8e-4,0.32957 -16.24358,28.34899 -16.52929,28.51327 z"
       transform="matrix(0.00612819,0.99998123,-0.99998123,0.00612819,258.5447,143.58887)" />
    <path
       transform="matrix(0.00612819,0.99998123,-0.99998123,0.00612819,202.30432,143.90577)"
       d="m 157.14287,170.21933 c -0.28572,0.16429 -32.67274,0.10714 -32.95787,-0.0582 -0.28513,-0.16529 -16.42916,-28.24185 -16.42857,-28.57143 5.8e-4,-0.32958 16.24358,-28.34899 16.52929,-28.51327 0.28572,-0.16429 32.67274,-0.10714 32.95787,0.0581 0.28513,0.16529 16.42915,28.24185 16.42857,28.57143 -5.8e-4,0.32957 -16.24358,28.34899 -16.52929,28.51327 z"
       inkscape:randomized="0"
       inkscape:rounded="0.01"
       inkscape:flatsided="true"
       sodipodi:arg2="1.5725608"
       sodipodi:arg1="1.048962"
       sodipodi:r2="28.542397"
       sodipodi:r1="32.95792"
       sodipodi:cy="141.6479"
       sodipodi:cx="140.71429"
       sodipodi:sides="6"
       id="path4016"
       style="fill:#ffb726;fill-opacity:0;stroke:#ffb726;stroke-width:6;stroke-linecap:round;stroke-miterlimit:4;stroke-opacity:1;stroke-dasharray:none"
       sodipodi:type="star" />
    <path
       sodipodi:type="star"
       style="fill:#ffb726;fill-opacity:0;stroke:#ffb726;stroke-width:6;stroke-linecap:round;stroke-miterlimit:4;stroke-opacity:1;stroke-dasharray:none"
       id="path4018"
       sodipodi:sides="6"
       sodipodi:cx="140.71429"
       sodipodi:cy="141.6479"
       sodipodi:r1="32.95792"
       sodipodi:r2="28.542397"
       sodipodi:arg1="1.048962"
       sodipodi:arg2="1.5725608"
       inkscape:flatsided="true"
       inkscape:rounded="0.01"
       inkscape:randomized="0"
       d="m 157.14287,170.21933 c -0.28572,0.16429 -32.67274,0.10714 -32.95787,-0.0582 -0.28513,-0.16529 -16.42916,-28.24185 -16.42857,-28.57143 5.8e-4,-0.32958 16.24358,-28.34899 16.52929,-28.51327 0.28572,-0.16429 32.67274,-0.10714 32.95787,0.0581 0.28513,0.16529 16.42915,28.24185 16.42857,28.57143 -5.8e-4,0.32957 -16.24358,28.34899 -16.52929,28.51327 z"
       transform="matrix(0.00612819,0.99998123,-0.99998123,0.00612819,230.99831,193.40069)" />
  </g>
</svg>
